<svg width="1785" height="1014" viewBox="0 0 1785 1014" fill="none" xmlns="http://www.w3.org/2000/svg">
<ellipse cx="1008.5" cy="165" rx="68.5" ry="66" fill="url(#paint0_linear_137_1446)"/>
<ellipse cx="606" cy="218" rx="69" ry="66" fill="url(#paint1_linear_137_1446)"/>
<ellipse cx="305.5" cy="400.5" rx="68.5" ry="66.5" fill="url(#paint2_linear_137_1446)"/>
<ellipse cx="1446" cy="654" rx="69" ry="66" fill="url(#paint3_linear_137_1446)"/>
<ellipse cx="1377" cy="930.5" rx="41" ry="39.5" fill="url(#paint4_linear_137_1446)"/>
<ellipse cx="1158.5" cy="487" rx="20.5" ry="20" fill="url(#paint5_linear_137_1446)"/>
<ellipse cx="1117.5" cy="867" rx="20.5" ry="20" fill="url(#paint6_linear_137_1446)"/>
<ellipse cx="1627.5" cy="908" rx="20.5" ry="20" fill="url(#paint7_linear_137_1446)"/>
<ellipse cx="1551.5" cy="231.5" rx="27.5" ry="26.5" fill="url(#paint8_linear_137_1446)"/>
<ellipse cx="1741.5" cy="20" rx="20.5" ry="20" fill="url(#paint9_linear_137_1446)"/>
<ellipse cx="439.5" cy="773" rx="20.5" ry="20" fill="url(#paint10_linear_137_1446)"/>
<ellipse cx="131.5" cy="61" rx="20.5" ry="20" fill="url(#paint11_linear_137_1446)"/>
<ellipse cx="503" cy="941" rx="34" ry="33" fill="url(#paint12_linear_137_1446)"/>
<defs>
<linearGradient id="paint0_linear_137_1446" x1="1077" y1="99" x2="945.091" y2="235.905" gradientUnits="userSpaceOnUse">
<stop stop-color="#B324FE"/>
<stop offset="1" stop-color="#5DFEFF"/>
</linearGradient>
<linearGradient id="paint1_linear_137_1446" x1="675" y1="152" x2="543.13" y2="289.864" gradientUnits="userSpaceOnUse">
<stop stop-color="#FF0000"/>
<stop offset="1" stop-color="#150000" stop-opacity="0"/>
</linearGradient>
<linearGradient id="paint2_linear_137_1446" x1="374" y1="334" x2="241.058" y2="470.94" gradientUnits="userSpaceOnUse">
<stop stop-color="#FF0000"/>
<stop offset="1" stop-color="#150000" stop-opacity="0"/>
</linearGradient>
<linearGradient id="paint3_linear_137_1446" x1="1515" y1="588" x2="1383.13" y2="725.864" gradientUnits="userSpaceOnUse">
<stop stop-color="#FF0000"/>
<stop offset="1" stop-color="#150000" stop-opacity="0"/>
</linearGradient>
<linearGradient id="paint4_linear_137_1446" x1="1418" y1="891" x2="1339.05" y2="972.943" gradientUnits="userSpaceOnUse">
<stop stop-color="#7400E0"/>
<stop offset="1" stop-color="#65FEFF"/>
</linearGradient>
<linearGradient id="paint5_linear_137_1446" x1="1179" y1="467" x2="1139.01" y2="507.988" gradientUnits="userSpaceOnUse">
<stop stop-color="#B324FE"/>
<stop offset="1" stop-color="#5DFEFF"/>
</linearGradient>
<linearGradient id="paint6_linear_137_1446" x1="1138" y1="847" x2="1098.01" y2="887.988" gradientUnits="userSpaceOnUse">
<stop stop-color="#FF0000"/>
<stop offset="1" stop-color="#150000" stop-opacity="0"/>
</linearGradient>
<linearGradient id="paint7_linear_137_1446" x1="1648" y1="888" x2="1608.01" y2="928.988" gradientUnits="userSpaceOnUse">
<stop stop-color="#FF0000"/>
<stop offset="1" stop-color="#150000" stop-opacity="0"/>
</linearGradient>
<linearGradient id="paint8_linear_137_1446" x1="1579" y1="205" x2="1526.04" y2="259.962" gradientUnits="userSpaceOnUse">
<stop stop-color="#B324FE"/>
<stop offset="1" stop-color="#5DFEFF"/>
</linearGradient>
<linearGradient id="paint9_linear_137_1446" x1="1762" y1="0" x2="1722.01" y2="40.9875" gradientUnits="userSpaceOnUse">
<stop stop-color="#B324FE"/>
<stop offset="1" stop-color="#5DFEFF"/>
</linearGradient>
<linearGradient id="paint10_linear_137_1446" x1="460" y1="753" x2="420.012" y2="793.988" gradientUnits="userSpaceOnUse">
<stop stop-color="#B324FE"/>
<stop offset="1" stop-color="#5DFEFF"/>
</linearGradient>
<linearGradient id="paint11_linear_137_1446" x1="152" y1="41" x2="112.012" y2="81.9875" gradientUnits="userSpaceOnUse">
<stop stop-color="#B324FE"/>
<stop offset="1" stop-color="#5DFEFF"/>
</linearGradient>
<linearGradient id="paint12_linear_137_1446" x1="537" y1="908" x2="471.029" y2="975.97" gradientUnits="userSpaceOnUse">
<stop stop-color="#B324FE"/>
<stop offset="1" stop-color="#5DFEFF"/>
</linearGradient>
</defs>
</svg>
