<svg width="1268" height="767" viewBox="0 0 1268 767" fill="none" xmlns="http://www.w3.org/2000/svg">
<circle cx="720" cy="125" r="50" fill="url(#paint0_linear_38_42)"/>
<circle cx="427" cy="165" r="50" fill="url(#paint1_linear_38_42)"/>
<circle cx="50" cy="424" r="50" fill="url(#paint2_linear_38_42)"/>
<circle cx="427" cy="606" r="50" fill="url(#paint3_linear_38_42)"/>
<circle cx="988" cy="704" r="30" fill="url(#paint4_linear_38_42)"/>
<circle cx="803" cy="563" r="15" fill="url(#paint5_linear_38_42)"/>
<circle cx="799" cy="656" r="15" fill="url(#paint6_linear_38_42)"/>
<circle cx="1170" cy="687" r="15" fill="url(#paint7_linear_38_42)"/>
<circle cx="1115" cy="175" r="20" fill="url(#paint8_linear_38_42)"/>
<circle cx="630" cy="649" r="25" fill="url(#paint9_linear_38_42)"/>
<circle cx="1253" cy="15" r="15" fill="url(#paint10_linear_38_42)"/>
<circle cx="15" cy="752" r="15" fill="url(#paint11_linear_38_42)"/>
<circle cx="82" cy="46" r="15" fill="url(#paint12_linear_38_42)"/>
<defs>
<linearGradient id="paint0_linear_38_42" x1="770" y1="75" x2="670" y2="175" gradientUnits="userSpaceOnUse">
<stop stop-color="#B324FE"/>
<stop offset="1" stop-color="#5DFEFF"/>
</linearGradient>
<linearGradient id="paint1_linear_38_42" x1="477" y1="115" x2="377" y2="215" gradientUnits="userSpaceOnUse">
<stop stop-color="#FF0000"/>
<stop offset="1" stop-color="#150000" stop-opacity="0"/>
</linearGradient>
<linearGradient id="paint2_linear_38_42" x1="100" y1="374" x2="1.19209e-05" y2="474" gradientUnits="userSpaceOnUse">
<stop stop-color="#FF0000"/>
<stop offset="1" stop-color="#150000" stop-opacity="0"/>
</linearGradient>
<linearGradient id="paint3_linear_38_42" x1="477" y1="556" x2="377" y2="656" gradientUnits="userSpaceOnUse">
<stop stop-color="#FF0000"/>
<stop offset="1" stop-color="#150000" stop-opacity="0"/>
</linearGradient>
<linearGradient id="paint4_linear_38_42" x1="1018" y1="674" x2="958" y2="734" gradientUnits="userSpaceOnUse">
<stop stop-color="#7400E0"/>
<stop offset="1" stop-color="#65FEFF"/>
</linearGradient>
<linearGradient id="paint5_linear_38_42" x1="818" y1="548" x2="788" y2="578" gradientUnits="userSpaceOnUse">
<stop stop-color="#B324FE"/>
<stop offset="1" stop-color="#5DFEFF"/>
</linearGradient>
<linearGradient id="paint6_linear_38_42" x1="814" y1="641" x2="784" y2="671" gradientUnits="userSpaceOnUse">
<stop stop-color="#FF0000"/>
<stop offset="1" stop-color="#150000" stop-opacity="0"/>
</linearGradient>
<linearGradient id="paint7_linear_38_42" x1="1185" y1="672" x2="1155" y2="702" gradientUnits="userSpaceOnUse">
<stop stop-color="#FF0000"/>
<stop offset="1" stop-color="#150000" stop-opacity="0"/>
</linearGradient>
<linearGradient id="paint8_linear_38_42" x1="1135" y1="155" x2="1095" y2="195" gradientUnits="userSpaceOnUse">
<stop stop-color="#B324FE"/>
<stop offset="1" stop-color="#5DFEFF"/>
</linearGradient>
<linearGradient id="paint9_linear_38_42" x1="655" y1="624" x2="605" y2="674" gradientUnits="userSpaceOnUse">
<stop stop-color="#B324FE"/>
<stop offset="1" stop-color="#5DFEFF"/>
</linearGradient>
<linearGradient id="paint10_linear_38_42" x1="1268" y1="0" x2="1238" y2="30" gradientUnits="userSpaceOnUse">
<stop stop-color="#B324FE"/>
<stop offset="1" stop-color="#5DFEFF"/>
</linearGradient>
<linearGradient id="paint11_linear_38_42" x1="30" y1="737" x2="0" y2="767" gradientUnits="userSpaceOnUse">
<stop stop-color="#B324FE"/>
<stop offset="1" stop-color="#5DFEFF"/>
</linearGradient>
<linearGradient id="paint12_linear_38_42" x1="97" y1="31" x2="67" y2="61" gradientUnits="userSpaceOnUse">
<stop stop-color="#B324FE"/>
<stop offset="1" stop-color="#5DFEFF"/>
</linearGradient>
</defs>
</svg>
