<svg width="350" height="379" viewBox="0 0 350 379" fill="none" xmlns="http://www.w3.org/2000/svg">
<mask id="path-1-inside-1_53_98" fill="white">
<path d="M95.0359 48.3377C59.9538 66.3595 31.988 95.7036 15.6735 131.612C-0.640888 167.52 -4.34727 207.886 5.15542 246.164C14.6581 284.443 36.8126 318.389 68.0264 342.498C99.2401 366.607 137.683 379.465 177.12 378.987C216.558 378.509 254.677 364.724 285.298 339.865C315.918 315.007 337.244 280.534 345.816 242.037C354.389 203.539 349.705 163.275 332.526 127.773C315.346 92.2704 286.678 63.6125 251.169 46.446L238.836 71.9561C268.596 86.3431 292.622 110.361 307.02 140.115C321.418 169.869 325.343 203.614 318.159 235.878C310.974 268.142 293.102 297.034 267.439 317.867C241.777 338.7 209.829 350.254 176.777 350.654C143.725 351.055 111.507 340.279 85.3468 320.073C59.187 299.868 40.6196 271.418 32.6555 239.337C24.6914 207.257 27.7977 173.426 41.4706 143.332C55.1435 113.238 78.5813 88.6453 107.983 73.5415L95.0359 48.3377Z"/>
</mask>
<path d="M95.0359 48.3377C59.9538 66.3595 31.988 95.7036 15.6735 131.612C-0.640888 167.52 -4.34727 207.886 5.15542 246.164C14.6581 284.443 36.8126 318.389 68.0264 342.498C99.2401 366.607 137.683 379.465 177.12 378.987C216.558 378.509 254.677 364.724 285.298 339.865C315.918 315.007 337.244 280.534 345.816 242.037C354.389 203.539 349.705 163.275 332.526 127.773C315.346 92.2704 286.678 63.6125 251.169 46.446L238.836 71.9561C268.596 86.3431 292.622 110.361 307.02 140.115C321.418 169.869 325.343 203.614 318.159 235.878C310.974 268.142 293.102 297.034 267.439 317.867C241.777 338.7 209.829 350.254 176.777 350.654C143.725 351.055 111.507 340.279 85.3468 320.073C59.187 299.868 40.6196 271.418 32.6555 239.337C24.6914 207.257 27.7977 173.426 41.4706 143.332C55.1435 113.238 78.5813 88.6453 107.983 73.5415L95.0359 48.3377Z" stroke="url(#paint0_linear_53_98)" stroke-width="50" mask="url(#path-1-inside-1_53_98)"/>
<path d="M46.9621 245V172.5C49.0621 172.067 51.2954 171.667 53.6621 171.3C56.0288 170.933 58.4788 170.65 61.0121 170.45C63.5788 170.25 66.1954 170.15 68.8621 170.15C79.1954 170.15 86.9288 172.033 92.0621 175.8C97.2288 179.533 99.8121 185.367 99.8121 193.3C99.8121 198.433 98.5788 202.733 96.1121 206.2C93.6788 209.667 90.1454 212.283 85.5121 214.05C80.9121 215.783 75.3454 216.65 68.8121 216.65C67.1121 216.65 65.5954 216.617 64.2621 216.55C62.9288 216.483 61.5454 216.417 60.1121 216.35V245H46.9621ZM91.0121 245L66.4121 210.6H80.8621L105.812 245H91.0121ZM69.0121 206.55C75.2788 206.55 79.8788 205.5 82.8121 203.4C85.7454 201.267 87.2121 197.9 87.2121 193.3C87.2121 190.233 86.5954 187.733 85.3621 185.8C84.1621 183.867 82.2954 182.45 79.7621 181.55C77.2621 180.617 74.0621 180.15 70.1621 180.15C68.1621 180.15 66.3621 180.233 64.7621 180.4C63.1954 180.567 61.6454 180.783 60.1121 181.05V206.1C61.1788 206.2 62.1621 206.283 63.0621 206.35C63.9954 206.417 64.9288 206.467 65.8621 206.5C66.8288 206.533 67.8788 206.55 69.0121 206.55Z" fill="url(#paint1_linear_53_98)"/>
<path d="M247.398 244V170H260.748V200.2H294.298V170H307.648V244H294.298V212.05H260.748V244H247.398Z" fill="url(#paint2_linear_53_98)"/>
<path d="M174.68 103.95C167.78 103.95 162.13 102.85 157.73 100.65C153.33 98.4167 150.063 95.0333 147.93 90.5C145.83 85.9667 144.78 80.2333 144.78 73.3V29H158.18V74.6C158.18 81 159.53 85.65 162.23 88.55C164.93 91.4167 169.08 92.85 174.68 92.85C180.28 92.85 184.413 91.4167 187.08 88.55C189.78 85.65 191.13 81 191.13 74.6V29H204.28V73.3C204.28 80.2333 203.23 85.9667 201.13 90.5C199.03 95.0333 195.797 98.4167 191.43 100.65C187.063 102.85 181.48 103.95 174.68 103.95Z" fill="url(#paint3_linear_53_98)"/>
<path d="M176.061 131.939C175.475 131.354 174.525 131.354 173.939 131.939L164.393 141.485C163.808 142.071 163.808 143.021 164.393 143.607C164.979 144.192 165.929 144.192 166.515 143.607L175 135.121L183.485 143.607C184.071 144.192 185.021 144.192 185.607 143.607C186.192 143.021 186.192 142.071 185.607 141.485L176.061 131.939ZM176.5 204V133H173.5V204H176.5Z" fill="url(#paint4_linear_53_98)"/>
<path d="M229.061 205.061C229.646 204.475 229.646 203.525 229.061 202.939L219.515 193.393C218.929 192.808 217.979 192.808 217.393 193.393C216.808 193.979 216.808 194.929 217.393 195.515L225.879 204L217.393 212.485C216.808 213.071 216.808 214.021 217.393 214.607C217.979 215.192 218.929 215.192 219.515 214.607L229.061 205.061ZM175 205.5H228V202.5H175V205.5Z" fill="url(#paint5_linear_53_98)"/>
<circle cx="175" cy="204" r="5" fill="url(#paint6_linear_53_98)"/>
<defs>
<linearGradient id="paint0_linear_53_98" x1="175" y1="29" x2="175" y2="379" gradientUnits="userSpaceOnUse">
<stop stop-color="#190033"/>
<stop offset="0.375148" stop-color="#B324FE"/>
<stop offset="0.737646" stop-color="#7400E0"/>
<stop offset="1" stop-color="#5DFEFF"/>
</linearGradient>
<linearGradient id="paint1_linear_53_98" x1="73.5" y1="142" x2="73.5" y2="266" gradientUnits="userSpaceOnUse">
<stop stop-color="#190033"/>
<stop offset="0.302083" stop-color="#B324FE"/>
<stop offset="0.651042" stop-color="#5349CB"/>
<stop offset="1" stop-color="#5DFEFF"/>
</linearGradient>
<linearGradient id="paint2_linear_53_98" x1="277.5" y1="141" x2="277.5" y2="266" gradientUnits="userSpaceOnUse">
<stop stop-color="#190033"/>
<stop offset="0.296875" stop-color="#B324FE"/>
<stop offset="0.651042" stop-color="#5349CB"/>
<stop offset="1" stop-color="#5DFEFF"/>
</linearGradient>
<linearGradient id="paint3_linear_53_98" x1="174.5" y1="0" x2="174.5" y2="125" gradientUnits="userSpaceOnUse">
<stop stop-color="#190033"/>
<stop offset="1" stop-color="#7400E0"/>
</linearGradient>
<linearGradient id="paint4_linear_53_98" x1="168.5" y1="169" x2="183" y2="169" gradientUnits="userSpaceOnUse">
<stop stop-color="#190033"/>
<stop offset="0.473958" stop-color="#7400E0"/>
<stop offset="1" stop-color="#5DFEFF"/>
</linearGradient>
<linearGradient id="paint5_linear_53_98" x1="202" y1="197.5" x2="202" y2="210.5" gradientUnits="userSpaceOnUse">
<stop stop-color="#190033"/>
<stop offset="0.494792" stop-color="#B324FE"/>
<stop offset="1" stop-color="#5DFEFF"/>
</linearGradient>
<linearGradient id="paint6_linear_53_98" x1="175" y1="199" x2="175" y2="209" gradientUnits="userSpaceOnUse">
<stop stop-color="#190033"/>
<stop offset="0.34375" stop-color="#7400E0"/>
<stop offset="0.692708" stop-color="#5A3AD0"/>
<stop offset="1" stop-color="#5DFEFF"/>
</linearGradient>
</defs>
</svg>
