<svg width="400" height="494" viewBox="0 0 400 494" fill="none" xmlns="http://www.w3.org/2000/svg">
<path d="M381.818 367.405L400 377.902L200 493.372L0 377.902L200 262.432L381.818 367.405Z" fill="url(#paint0_radial_128_1342)"/>
<path d="M18.1821 146.962L200 41.9893V251.935L18.1821 356.907V146.962Z" fill="#00FFFF" fill-opacity="0.2457"/>
<path d="M200 41.9893L381.818 146.962V356.907L200 251.935V41.9893Z" fill="#00FFFF" fill-opacity="0.2457"/>
<path d="M109.091 356.907L200 409.393L290.909 356.907L200 304.421L109.091 356.907Z" fill="black" fill-opacity="0.127764"/>
<path d="M109.091 251.935L200 304.421L290.909 251.935L200 199.448L109.091 251.935Z" fill="black" fill-opacity="0.127764"/>
<path d="M109.091 251.934L200 304.421V409.394L109.091 356.907V251.934Z" fill="url(#paint1_linear_128_1342)"/>
<path d="M199.999 304.421L290.908 251.934V356.907L199.999 409.394V304.421Z" fill="url(#paint2_linear_128_1342)"/>
<path d="M109.091 251.935L200 304.421L290.909 251.935L200 199.448L109.091 251.935Z" fill="black" fill-opacity="0.127764"/>
<path d="M18.1821 146.962L200 251.934V461.88L18.1821 356.907V146.962Z" fill="#00FFFF" fill-opacity="0.2457"/>
<path d="M200 251.934L381.818 146.962V356.907L200 461.88V251.934Z" fill="#00FFFF" fill-opacity="0.2457"/>
<path d="M36.3643 356.908V367.405L200.001 461.881V451.383L36.3643 356.908Z" fill="black" fill-opacity="0.2457"/>
<path d="M200 451.383L363.636 356.908V367.405L200 461.881V451.383Z" fill="black" fill-opacity="0.2457"/>
<path d="M36.3643 356.908L200.001 262.432V272.929L36.3643 367.405V356.908Z" fill="black" fill-opacity="0.2457"/>
<path d="M200 262.432L363.636 356.908V367.405L200 272.929V262.432Z" fill="black" fill-opacity="0.2457"/>
<path d="M18.1821 367.405L200 262.432L381.818 367.405L200 472.378L18.1821 367.405Z" fill="black" fill-opacity="0.2457"/>
<path d="M18.1821 367.405V377.902L200 482.875V472.378L18.1821 367.405Z" fill="black" fill-opacity="0.127764"/>
<path d="M200 472.378L381.818 367.405V377.902L200 482.875V472.378Z" fill="black" fill-opacity="0.135135"/>
<path d="M18.1821 367.405V377.902L200 272.929V262.432L18.1821 367.405Z" fill="black" fill-opacity="0.127764"/>
<path d="M200 262.432L381.818 367.405V377.902L200 272.929V262.432Z" fill="black" fill-opacity="0.127764"/>
<path d="M36.3643 356.908L200.001 451.383L363.637 356.908L200.001 262.432L36.3643 356.908Z" fill="#00FFFF" fill-opacity="0.2457"/>
<path d="M36.3643 146.962L200.001 52.4866L363.637 146.962L200.001 241.438L36.3643 146.962Z" fill="#00FFFF" fill-opacity="0.127764"/>
<path d="M36.3643 125.968L200.001 31.4919L363.637 125.968L200.001 220.443L36.3643 125.968Z" fill="#00FFFF" fill-opacity="0.127764"/>
<path d="M36.3643 125.968V146.962L200.001 241.438V220.443L36.3643 125.968Z" fill="black" fill-opacity="0.127764"/>
<path d="M200 220.443L363.636 125.968V146.962L200 241.438V220.443Z" fill="black" fill-opacity="0.127764"/>
<path d="M363.636 125.968L200 31.4919V52.4865L363.636 146.962V125.968Z" fill="black" fill-opacity="0.127764"/>
<path d="M200.001 31.4919L36.3643 125.968V146.962L200.001 52.4865V31.4919Z" fill="black" fill-opacity="0.127764"/>
<path d="M200 20.9945L381.819 125.967L200 230.94L18.1821 125.967L200 20.9945Z" fill="black" fill-opacity="0.788698"/>
<path d="M200 10.4973L381.819 115.47L200 220.443L18.1821 115.47L200 10.4973Z" fill="black" fill-opacity="0.788698"/>
<path d="M200 0L381.819 104.973L200 209.946L18.1821 104.973L200 0Z" fill="black" fill-opacity="0.788698"/>
<path d="M159.091 359.532L204.545 333.289V322.791L159.091 349.035V359.532Z" fill="#FFFF00" fill-opacity="0.788698"/>
<path d="M204.544 322.791L249.999 349.035V359.532L204.544 333.289V322.791Z" fill="#FFFF00" fill-opacity="0.788698"/>
<path d="M159.091 349.035V359.532L204.545 385.775V375.278L159.091 349.035Z" fill="#FFFF00" fill-opacity="0.788698"/>
<path d="M204.544 375.278L249.999 349.035V359.532L204.544 385.775V375.278Z" fill="#FFFF00" fill-opacity="0.788698"/>
<path d="M177.272 317.543L204.545 301.797V333.288L177.272 349.034V317.543Z" fill="#808000" fill-opacity="0.788698"/>
<path d="M204.544 301.797L231.817 317.543V349.034L204.544 333.288V301.797Z" fill="#808000" fill-opacity="0.788698"/>
<path d="M204.545 333.289V364.78L177.272 349.035V317.543L204.545 333.289Z" fill="#808000" fill-opacity="0.788698"/>
<path d="M204.544 333.289L231.817 317.543V349.035L204.544 364.78V333.289Z" fill="#808000" fill-opacity="0.788698"/>
<path d="M159.091 349.034L204.545 375.278L250 349.034L204.545 322.791L159.091 349.034Z" fill="#D4AA00" fill-opacity="0.788698"/>
<path d="M159.091 265.056L204.545 238.813V291.3L159.091 317.543V265.056Z" fill="#FFFF00" fill-opacity="0.788698"/>
<path d="M204.544 238.813L249.999 265.056V317.543L204.544 291.3V238.813Z" fill="#FFFF00" fill-opacity="0.788698"/>
<path d="M159.091 265.056L204.545 291.299V343.786L159.091 317.543V265.056Z" fill="#FFFF00" fill-opacity="0.788698"/>
<path d="M204.544 291.299L249.999 265.056V317.543L204.544 343.786V291.299Z" fill="#FFFF00" fill-opacity="0.788698"/>
<path d="M159.091 265.056L204.545 238.813L250 265.056L204.545 291.3L159.091 265.056Z" fill="#D4AA00" fill-opacity="0.788698"/>
<path d="M177.272 265.056L204.545 249.311L231.818 265.056L204.545 280.802L177.272 265.056Z" fill="#FFFF00" fill-opacity="0.788698"/>
<path d="M222.727 291.3L240.908 301.797V333.289L222.727 322.792V291.3Z" fill="#FFFF00" fill-opacity="0.788698"/>
<path d="M222.727 291.299L231.817 286.051L249.999 296.548L240.908 301.797L222.727 291.299Z" fill="#D4AA00" fill-opacity="0.788698"/>
<path d="M240.909 301.797V333.289L249.999 328.04V296.548L240.909 301.797Z" fill="#D4AA00" fill-opacity="0.788698"/>
<path d="M222.727 301.797V312.294L231.817 317.543V307.045L222.727 301.797Z" fill="#D4AA00" fill-opacity="0.788698"/>
<path d="M177.273 254.559L168.182 259.808L159.091 254.559L168.182 249.311L177.273 254.559Z" fill="#D4AA00" fill-opacity="0.788698"/>
<path d="M159.091 254.559V265.056L168.182 259.807L159.091 254.559Z" fill="#FFFF00" fill-opacity="0.788698"/>
<defs>
<radialGradient id="paint0_radial_128_1342" cx="0" cy="0" r="1" gradientUnits="userSpaceOnUse" gradientTransform="translate(200 377.902) scale(200 115.47)">
<stop stop-color="#F20000"/>
<stop offset="1" stop-color="#F2F2F2" stop-opacity="0"/>
</radialGradient>
<linearGradient id="paint1_linear_128_1342" x1="318.182" y1="425.139" x2="63.6362" y2="278.178" gradientUnits="userSpaceOnUse">
<stop stop-color="#0000FF"/>
<stop offset="1" stop-color="#B324FE"/>
</linearGradient>
<linearGradient id="paint2_linear_128_1342" x1="309.089" y1="304.421" x2="99.9986" y2="425.139" gradientUnits="userSpaceOnUse">
<stop stop-color="#ADDFFF"/>
<stop offset="1" stop-color="#0000FF"/>
</linearGradient>
</defs>
</svg>
