<svg width="175" height="190" viewBox="0 0 175 190" fill="none" xmlns="http://www.w3.org/2000/svg">
<mask id="path-1-inside-1_123_297" fill="white">
<path d="M47.518 24.1689C29.9769 33.1798 15.994 47.8518 7.83677 65.8058C-0.320444 83.7598 -2.17364 103.943 2.57771 123.082C7.32906 142.221 18.4063 159.194 34.0132 171.249C49.6201 183.303 68.8413 189.732 88.5601 189.494C108.279 189.255 127.339 182.362 142.649 169.933C157.959 157.504 168.622 140.267 172.908 121.018C177.194 101.77 174.853 81.6374 166.263 63.8863C157.673 46.1352 143.339 31.8062 125.585 23.223L119.418 35.978C134.298 43.1715 146.311 55.1805 153.51 70.0574C160.709 84.9343 162.672 101.807 159.079 117.939C155.487 134.071 146.551 148.517 133.72 158.933C120.888 169.35 104.914 175.127 88.3884 175.327C71.8624 175.527 55.7533 170.139 42.6734 160.037C29.5935 149.934 20.3098 135.709 16.3277 119.669C12.3457 103.628 13.8988 86.7131 20.7353 71.6661C27.5718 56.6191 39.2906 44.3227 53.9916 36.7707L47.518 24.1689Z"/>
</mask>
<path d="M47.518 24.1689C29.9769 33.1798 15.994 47.8518 7.83677 65.8058C-0.320444 83.7598 -2.17364 103.943 2.57771 123.082C7.32906 142.221 18.4063 159.194 34.0132 171.249C49.6201 183.303 68.8413 189.732 88.5601 189.494C108.279 189.255 127.339 182.362 142.649 169.933C157.959 157.504 168.622 140.267 172.908 121.018C177.194 101.77 174.853 81.6374 166.263 63.8863C157.673 46.1352 143.339 31.8062 125.585 23.223L119.418 35.978C134.298 43.1715 146.311 55.1805 153.51 70.0574C160.709 84.9343 162.672 101.807 159.079 117.939C155.487 134.071 146.551 148.517 133.72 158.933C120.888 169.35 104.914 175.127 88.3884 175.327C71.8624 175.527 55.7533 170.139 42.6734 160.037C29.5935 149.934 20.3098 135.709 16.3277 119.669C12.3457 103.628 13.8988 86.7131 20.7353 71.6661C27.5718 56.6191 39.2906 44.3227 53.9916 36.7707L47.518 24.1689Z" stroke="url(#paint0_linear_123_297)" stroke-opacity="0.5" stroke-width="50" mask="url(#path-1-inside-1_123_297)"/>
<path d="M23.3119 116.2V81.4C24.3199 81.192 25.3919 81 26.5279 80.824C27.6639 80.648 28.8399 80.512 30.0559 80.416C31.2879 80.32 32.5439 80.272 33.8239 80.272C38.7839 80.272 42.4959 81.176 44.9599 82.984C47.4399 84.776 48.6799 87.576 48.6799 91.384C48.6799 93.848 48.0879 95.912 46.9039 97.576C45.7359 99.24 44.0399 100.496 41.8159 101.344C39.6079 102.176 36.9359 102.592 33.7999 102.592C32.9839 102.592 32.2559 102.576 31.6159 102.544C30.9759 102.512 30.3119 102.48 29.6239 102.448V116.2H23.3119ZM44.4559 116.2L32.6479 99.688H39.5839L51.5599 116.2H44.4559ZM33.8959 97.744C36.9039 97.744 39.1119 97.24 40.5199 96.232C41.9279 95.208 42.6319 93.592 42.6319 91.384C42.6319 89.912 42.3359 88.712 41.7439 87.784C41.1679 86.856 40.2719 86.176 39.0559 85.744C37.8559 85.296 36.3199 85.072 34.4479 85.072C33.4879 85.072 32.6239 85.112 31.8559 85.192C31.1039 85.272 30.3599 85.376 29.6239 85.504V97.528C30.1359 97.576 30.6079 97.616 31.0399 97.648C31.4879 97.68 31.9359 97.704 32.3839 97.72C32.8479 97.736 33.3519 97.744 33.8959 97.744Z" fill="#B324FE"/>
<path d="M124.001 116.2V80.68H130.409V95.176H146.513V80.68H152.921V116.2H146.513V100.864H130.409V116.2H124.001Z" fill="#B324FE"/>
<path d="M87.3364 49.456C84.0244 49.456 81.3124 48.928 79.2004 47.872C77.0884 46.8 75.5204 45.176 74.4964 43C73.4884 40.824 72.9844 38.072 72.9844 34.744V13.48H79.4164V35.368C79.4164 38.44 80.0644 40.672 81.3604 42.064C82.6564 43.44 84.6484 44.128 87.3364 44.128C90.0244 44.128 92.0084 43.44 93.2884 42.064C94.5844 40.672 95.2324 38.44 95.2324 35.368V13.48H101.544V34.744C101.544 38.072 101.04 40.824 100.032 43C99.0244 45.176 97.4724 46.8 95.3764 47.872C93.2804 48.928 90.6004 49.456 87.3364 49.456Z" fill="#B324FE"/>
<path d="M88.5607 58.9393C87.9749 58.3536 87.0251 58.3536 86.4393 58.9393L76.8934 68.4853C76.3076 69.0711 76.3076 70.0208 76.8934 70.6066C77.4792 71.1924 78.4289 71.1924 79.0147 70.6066L87.5 62.1213L95.9853 70.6066C96.5711 71.1924 97.5208 71.1924 98.1066 70.6066C98.6924 70.0208 98.6924 69.0711 98.1066 68.4853L88.5607 58.9393ZM89 102V60H86V102H89Z" fill="url(#paint1_linear_123_297)"/>
<path d="M113.061 103.061C113.646 102.475 113.646 101.525 113.061 100.939L103.515 91.3934C102.929 90.8076 101.979 90.8076 101.393 91.3934C100.808 91.9792 100.808 92.9289 101.393 93.5147L109.879 102L101.393 110.485C100.808 111.071 100.808 112.021 101.393 112.607C101.979 113.192 102.929 113.192 103.515 112.607L113.061 103.061ZM87.5 103.5H112V100.5H87.5V103.5Z" fill="url(#paint2_linear_123_297)"/>
<ellipse cx="87.5" cy="102" rx="2.5" ry="2.5" fill="url(#paint3_linear_123_297)"/>
<defs>
<linearGradient id="paint0_linear_123_297" x1="87.5" y1="14.5" x2="87.5" y2="189.5" gradientUnits="userSpaceOnUse">
<stop stop-color="#190033"/>
<stop offset="0.375148" stop-color="#B324FE"/>
<stop offset="0.737646" stop-color="#7400E0"/>
<stop offset="1" stop-color="#BD5EEA"/>
</linearGradient>
<linearGradient id="paint1_linear_123_297" x1="76.5" y1="81.2958" x2="97" y2="81.2958" gradientUnits="userSpaceOnUse">
<stop stop-color="#7400E0"/>
<stop offset="0.473958" stop-color="#7400E0"/>
<stop offset="1" stop-color="#B324FE"/>
</linearGradient>
<linearGradient id="paint2_linear_123_297" x1="99.9811" y1="95.5" x2="99.9811" y2="108.5" gradientUnits="userSpaceOnUse">
<stop stop-color="#B324FE"/>
<stop offset="0.494792" stop-color="#B324FE"/>
<stop offset="1" stop-color="#5349CB"/>
</linearGradient>
<linearGradient id="paint3_linear_123_297" x1="87.5" y1="99.5" x2="87.5" y2="104.5" gradientUnits="userSpaceOnUse">
<stop stop-color="#190033"/>
<stop offset="0.0001" stop-color="#7400E0"/>
<stop offset="0.9999" stop-color="#5A3AD0"/>
<stop offset="1" stop-color="#BD5EEA"/>
</linearGradient>
</defs>
</svg>
